# xmcd
#
# Track frame offsets:
#	150
#	14879
#	32327
#	50502
#	67377
#	87663
#
# Disc length: 1454 seconds
#
# Revision: 1
# Processed by: cddbd v1.4PL0 Copyright (c) Steve Scherf et al.
# Submitted via: EasyCDDAExtractor 6.0.0.1
#
DISCID=5505ac06
DTITLE=Roland Gift - Album Sampler
DYEAR=1900
DGENRE=
TTITLE0=Tell Me You Want Me Back(Album Sampler US CD Version)
TTITLE1=It's Only Money(Album Sampler US CD Version)
TTITLE2=Say It Ain't So(Album Sampler US CD Version)
TTITLE3=A Girl Like You(Album Sampler US CD Version)
TTITLE4=Looking For A Friend(Album Sampler US CD Version)
TTITLE5=Superhero(Album Sampler US CD Version)
EXTD=
EXTT0=
EXTT1=
EXTT2=
EXTT3=
EXTT4=
EXTT5=
PLAYORDER=
